<?xml version="1.0" encoding="UTF-8" standalone="no"?>
<svg xmlns="http://www.w3.org/2000/svg" width="300" height="300" viewBox="0 0 300 300">
  <!-- Background -->
  <rect width="300" height="300" fill="white"/>

  <!-- Define styles -->
  <defs>
    <style>
      .apple-body { fill: #DC143C; /* Crimson Red */ stroke: #8B0000; /* Dark Red */ stroke-width: 1; }
      .stem { fill: #8B4513; /* Saddle Brown */ }
      .leaf { fill: #228B22; /* Forest Green */ stroke: #006400; /* Dark Green */ stroke-width: 0.5; }
      .highlight { fill: white; opacity: 0.3; }
    </style>
     <radialGradient id="appleShine" cx="0.4" cy="0.4" r="0.5" fx="0.3" fy="0.3">
      <stop offset="0%" style="stop-color:white; stop-opacity:0.4" />
      <stop offset="100%" style="stop-color:white; stop-opacity:0" />
    </radialGradient>
  </defs>

  <!-- Apple Body -->
  <path class="apple-body" 
        d="M150,100 C 180,40 250,60 250,150 C 250,250 180,280 150,270 C 120,280 50,250 50,150 C 50,60 120,40 150,100 Z"/>
  
  <!-- Apply Radial Shine -->
   <path fill="url(#appleShine)"
        d="M150,100 C 180,40 250,60 250,150 C 250,250 180,280 150,270 C 120,280 50,250 50,150 C 50,60 120,40 150,100 Z"/>
 
  <!-- Stem -->
  <path class="stem" 
        d="M150,100 Q 155,70 165,50 A 15 15 0 0 1 175 60 Q 160,80 155,105 Z"/>

  <!-- Leaf -->
  <path class="leaf" 
        d="M175,60 Q 200,50 210,80 A 30 30 0 0 1 175 90 Q 180,70 175,60 Z"/>
  <!-- Leaf vein -->
   <line x1="178" y1="75" x2="200" y2="70" stroke="#90EE90" stroke-width="1" stroke-opacity="0.6"/>

</svg> 