<?xml version="1.0" encoding="UTF-8" standalone="no"?>
<svg xmlns="http://www.w3.org/2000/svg" width="350" height="300" viewBox="0 0 350 300">
  <!-- Background -->
  <rect width="350" height="300" fill="white"/>

  <!-- Define styles and patterns -->
  <defs>
    <style>
      .bread-slice { fill: #F5DEB3; /* Wheat */ stroke: #D2B48C; /* Tan */ stroke-width: 3; }
      .crust { fill: #CD853F; /* Peru */ }
    </style>
    <!-- Bread texture -->
    <pattern id="breadTexture" patternUnits="userSpaceOnUse" width="6" height="6">
      <circle cx="2" cy="2" r="0.6" fill="#D2B48C" opacity="0.2"/>
      <circle cx="5" cy="5" r="0.4" fill="#D2B48C" opacity="0.15"/>
    </pattern>
  </defs>

  <!-- Bread Slice Shape -->
  <g transform="translate(25, 25)"> <!-- Padding -->
    <!-- Main slice body -->
    <path class="bread-slice" 
          d="M20,80 Q 20,20 80,20 H 220 Q 280,20 280,80 V 230 H 20 Z"
          style="fill: url(#breadTexture);"/>
     <path class="bread-slice" 
          d="M20,80 Q 20,20 80,20 H 220 Q 280,20 280,80 V 230 H 20 Z"
          style="fill: #F5DEB3;"/> <!-- Solid base color -->

    <!-- Crust (drawn separately to appear 'on top' visually) -->
    <path class="crust"
          d="M80,20 Q 20,20 20,80 V 230 H 280 V 80 Q 280,20 220,20 H 80 M 80,23 Q 23,23 23,80 V 227 H 277 V 80 Q 277,23 220,23 H 80"
          fill-rule="evenodd"/>
  </g>

</svg> 