<?xml version="1.0" encoding="UTF-8" standalone="no"?>
<svg xmlns="http://www.w3.org/2000/svg" width="400" height="250" viewBox="0 0 400 250">
  <!-- Background -->
  <rect width="400" height="250" fill="white"/>

  <!-- Define styles and filters -->
  <defs>
    <style>
      .chocolate-segment { fill: #654321; /* Standard Brown */ stroke: #432A14; /* Darker Brown */ stroke-width: 1.5; }
      .highlight { fill: white; opacity: 0.1; }
    </style>
    <!-- Subtle shine gradient -->
    <linearGradient id="chocolateShine" x1="0%" y1="0%" x2="100%" y2="100%">
      <stop offset="0%" style="stop-color:#7A5229; stop-opacity:1" />
      <stop offset="50%" style="stop-color:#654321; stop-opacity:1" />
      <stop offset="100%" style="stop-color:#50341A; stop-opacity:1" />
    </linearGradient>
     <!-- Filter for slight bevel effect -->
    <filter id="bevel" x="-20%" y="-20%" width="140%" height="140%">
      <feGaussianBlur in="SourceAlpha" stdDeviation="1" result="blur"/>
      <feOffset in="blur" dx="1" dy="1" result="offsetBlur"/>
      <feSpecularLighting in="blur" surfaceScale="5" specularConstant=".75" specularExponent="20" lighting-color="#bbbbbb" result="specOut">
        <fePointLight x="-5000" y="-10000" z="20000"/>
      </feSpecularLighting>
      <feComposite in="specOut" in2="SourceAlpha" operator="in" result="specOut"/>
      <feComposite in="SourceGraphic" in2="specOut" operator="arithmetic" k1="0" k2="1" k3="1" k4="0" result="litPaint"/>
      <feMerge>
        <feMergeNode in="offsetBlur"/>
        <feMergeNode in="litPaint"/>
      </feMerge>
    </filter>
  </defs>

  <!-- Chocolate Bar (Grid of Segments) -->
  <g transform="translate(30, 40)" filter="url(#bevel)">
    <!-- Row 1 -->
    <rect x="0" y="0" width="80" height="50" rx="5" ry="5" class="chocolate-segment" style="fill: url(#chocolateShine);"/>
    <rect x="90" y="0" width="80" height="50" rx="5" ry="5" class="chocolate-segment" style="fill: url(#chocolateShine);"/>
    <rect x="180" y="0" width="80" height="50" rx="5" ry="5" class="chocolate-segment" style="fill: url(#chocolateShine);"/>
    <rect x="270" y="0" width="80" height="50" rx="5" ry="5" class="chocolate-segment" style="fill: url(#chocolateShine);"/>
    <!-- Row 2 -->
    <rect x="0" y="60" width="80" height="50" rx="5" ry="5" class="chocolate-segment" style="fill: url(#chocolateShine);"/>
    <rect x="90" y="60" width="80" height="50" rx="5" ry="5" class="chocolate-segment" style="fill: url(#chocolateShine);"/>
    <rect x="180" y="60" width="80" height="50" rx="5" ry="5" class="chocolate-segment" style="fill: url(#chocolateShine);"/>
    <rect x="270" y="60" width="80" height="50" rx="5" ry="5" class="chocolate-segment" style="fill: url(#chocolateShine);"/>
    <!-- Row 3 -->
    <rect x="0" y="120" width="80" height="50" rx="5" ry="5" class="chocolate-segment" style="fill: url(#chocolateShine);"/>
    <rect x="90" y="120" width="80" height="50" rx="5" ry="5" class="chocolate-segment" style="fill: url(#chocolateShine);"/>
    <rect x="180" y="120" width="80" height="50" rx="5" ry="5" class="chocolate-segment" style="fill: url(#chocolateShine);"/>
    <rect x="270" y="120" width="80" height="50" rx="5" ry="5" class="chocolate-segment" style="fill: url(#chocolateShine);"/>
  </g>

</svg> 