<?xml version="1.0" encoding="UTF-8" standalone="no"?>
<svg xmlns="http://www.w3.org/2000/svg" width="300" height="400" viewBox="0 0 300 400">
  <!-- Background -->
  <rect width="300" height="400" fill="white"/>
  
  <!-- Glass outline -->
  <path d="M90,80 L60,350 L240,350 L210,80 Z" fill="none" stroke="#A0A0A0" stroke-width="2"/>
  
  <!-- Glass highlight -->
  <path d="M90,80 L60,350 L240,350 L210,80 Z" fill="#E6F0F6" fill-opacity="0.3"/>
  
  <!-- Cola liquid -->
  <path d="M90,80 L60,350 L240,350 L210,80 Z" fill="#3B1C10"/>
  
  <!-- Foam/top of cola -->
  <path d="M90,80 L210,80 C200,65 100,65 90,80 Z" fill="#D9A05B"/>
  
  <!-- Ice cubes -->
  <rect x="115" y="120" width="30" height="30" fill="#E6F0F6" fill-opacity="0.7" transform="rotate(15,130,135)"/>
  <rect x="150" y="150" width="35" height="35" fill="#E6F0F6" fill-opacity="0.7" transform="rotate(-10,167,167)"/>
  <rect x="100" y="190" width="25" height="25" fill="#E6F0F6" fill-opacity="0.7" transform="rotate(5,112,202)"/>
  
  <!-- Glass rim highlight -->
  <path d="M90,80 L210,80" stroke="white" stroke-width="2" stroke-opacity="0.5"/>
  
  <!-- Bubbles -->
  <circle cx="120" cy="250" r="3" fill="white" fill-opacity="0.6"/>
  <circle cx="140" cy="220" r="2" fill="white" fill-opacity="0.6"/>
  <circle cx="110" cy="200" r="4" fill="white" fill-opacity="0.6"/>
  <circle cx="160" cy="260" r="3" fill="white" fill-opacity="0.6"/>
  <circle cx="180" cy="230" r="2" fill="white" fill-opacity="0.6"/>
  <circle cx="130" cy="280" r="3" fill="white" fill-opacity="0.6"/>
  <circle cx="150" cy="300" r="2" fill="white" fill-opacity="0.6"/>
  <circle cx="170" cy="270" r="3" fill="white" fill-opacity="0.6"/>
  <circle cx="125" cy="310" r="2" fill="white" fill-opacity="0.6"/>
  <circle cx="165" cy="290" r="4" fill="white" fill-opacity="0.6"/>
  <circle cx="145" cy="250" r="1" fill="white" fill-opacity="0.6"/>
  <circle cx="155" cy="220" r="1" fill="white" fill-opacity="0.6"/>
  <circle cx="175" cy="310" r="1" fill="white" fill-opacity="0.6"/>
  <circle cx="120" cy="330" r="1" fill="white" fill-opacity="0.6"/>
  <circle cx="190" cy="280" r="2" fill="white" fill-opacity="0.6"/>
  
  <!-- Glass shine/reflection -->
  <path d="M100,100 C120,180 140,250 100,320" stroke="white" stroke-width="10" stroke-opacity="0.2" fill="none"/>
  <path d="M200,100 C180,180 160,250 200,320" stroke="white" stroke-width="4" stroke-opacity="0.1" fill="none"/>
</svg> 