<?xml version="1.0" encoding="UTF-8" standalone="no"?>
<svg xmlns="http://www.w3.org/2000/svg" width="300" height="350" viewBox="0 0 300 350">
  <!-- Background -->
  <rect width="300" height="350" fill="white"/>

  <!-- Define styles and gradients -->
  <defs>
    <style>
      .mushroom-cap { fill: url(#capGradient); stroke: #8B4513; /* Saddle Brown */ stroke-width: 1.5; }
      .mushroom-stem { fill: url(#stemGradient); stroke: #D2B48C; /* Tan */ stroke-width: 1; }
      .gills { fill: #F5DEB3; /* Wheat */ stroke: #D2B48C; stroke-width: 0.5; opacity: 0.8; }
    </style>
    <!-- Cap Gradient (Radial) -->
     <radialGradient id="capGradient" cx="0.5" cy="0.5" r="0.7" fx="0.5" fy="0.3">
      <stop offset="0%" style="stop-color:#D2691E; stop-opacity:1" /> <!-- Chocolate -->
      <stop offset="100%" style="stop-color:#A0522D; stop-opacity:1" /> <!-- Sienna -->
    </radialGradient>
    <!-- Stem Gradient (Linear) -->
     <linearGradient id="stemGradient" x1="0%" y1="0%" x2="100%" y2="0%">
      <stop offset="0%" style="stop-color:#FFF8DC; stop-opacity:1" /> <!-- Cornsilk -->
      <stop offset="50%" style="stop-color:#F5F5DC; stop-opacity:1" /> <!-- Beige -->
      <stop offset="100%" style="stop-color:#FFF8DC; stop-opacity:1" /> <!-- Cornsilk -->
    </linearGradient>
  </defs>

  <!-- Mushroom -->
  <g transform="translate(50, 50)">
    <!-- Stem -->
    <path class="mushroom-stem" d="M80,250 C 70,150 130,150 120,250 Z"/>
    
    <!-- Gills (under cap) -->
    <ellipse cx="100" cy="150" rx="70" ry="25" class="gills"/>
    <!-- Gill lines -->
     <line x1="100" y1="150" x2="50" y2="155" stroke="#D2B48C" stroke-width="0.7"/>
     <line x1="100" y1="150" x2="70" y2="160" stroke="#D2B48C" stroke-width="0.7"/>
     <line x1="100" y1="150" x2="90" y2="165" stroke="#D2B48C" stroke-width="0.7"/>
     <line x1="100" y1="150" x2="110" y2="165" stroke="#D2B48C" stroke-width="0.7"/>
     <line x1="100" y1="150" x2="130" y2="160" stroke="#D2B48C" stroke-width="0.7"/>
     <line x1="100" y1="150" x2="150" y2="155" stroke="#D2B48C" stroke-width="0.7"/>

    <!-- Cap -->
    <path class="mushroom-cap" d="M30,150 C 30,50 170,50 170,150 Q 100,180 30,150 Z"/>
  </g>

</svg> 