<?xml version="1.0" encoding="UTF-8" standalone="no"?>
<svg xmlns="http://www.w3.org/2000/svg" width="300" height="400" viewBox="0 0 300 400">
  <!-- Background -->
  <rect width="300" height="400" fill="white"/>

  <!-- Define styles and gradients -->
  <defs>
    <style>
      .glass-outline { fill: #E0F2F7; /* Very light blue, almost transparent */ stroke: #A0A0A0; stroke-width: 1.5; fill-opacity: 0.4; }
      .glass-base { fill: #C0E0E8; fill-opacity: 0.5; }
      .juice { fill: url(#juiceGradient); }
      .pulp { fill: #FFC04D; opacity: 0.5; }
      .condensation { fill: #FFFFFF; opacity: 0.4; }
      .orange-slice-rind { fill: #FFA500; stroke: #E69500; stroke-width: 1; }
      .orange-slice-pulp { fill: #FFC04D; stroke: #FFA500; stroke-width: 0.5; }
    </style>
     <!-- Juice Gradient -->
    <linearGradient id="juiceGradient" x1="0%" y1="0%" x2="0%" y2="100%">
      <stop offset="0%" style="stop-color:#FFB84D;" /> <!-- Lighter orange -->
      <stop offset="100%" style="stop-color:#FFA500;" /> <!-- Standard orange -->
    </linearGradient>
    <!-- Glass Shine -->
     <linearGradient id="glassShine" x1="0%" y1="0%" x2="100%" y2="0%">
      <stop offset="10%" style="stop-color:white; stop-opacity:0.5" />
      <stop offset="30%" style="stop-color:white; stop-opacity:0.1" />
      <stop offset="70%" style="stop-color:white; stop-opacity:0.1" />
      <stop offset="90%" style="stop-color:white; stop-opacity:0.4" />
    </linearGradient>
  </defs>

  <!-- Glass -->
  <g transform="translate(50, 50)">
    <!-- Main glass body -->
    <path class="glass-outline" d="M10,0 L0,300 H200 L190,0 Z"/>
    <!-- Glass base -->
    <ellipse class="glass-base" cx="100" cy="300" rx="100" ry="20"/>
    <!-- Juice level -->
    <path class="juice" d="M15,20 L5,260 H195 L185,20 Z"/>
     <!-- Juice surface -->
    <ellipse cx="100" cy="20" rx="90" ry="10" style="fill:#FFB84D;"/>
    <!-- Apply Glass Shine -->
    <path d="M10,0 L0,300 H200 L190,0 Z" style="fill: url(#glassShine); fill-opacity: 0.2;"/>
    <!-- Glass Rim -->
     <ellipse fill="none" stroke="#A0A0A0" stroke-width="2" cx="100" cy="0" rx="90" ry="10"/>

    <!-- Pulp bits -->
    <circle cx="100" cy="50" r="1.5" class="pulp"/>
    <circle cx="130" cy="80" r="1" class="pulp"/>
    <circle cx="70" cy="120" r="2" class="pulp"/>
    <circle cx="150" cy="150" r="1.5" class="pulp"/>
    <circle cx="90" cy="180" r="1" class="pulp"/>
    <circle cx="120" cy="220" r="2" class="pulp"/>
    <circle cx="60" cy="240" r="1.5" class="pulp"/>

    <!-- Condensation -->
    <circle cx="30" cy="100" r="4" class="condensation"/>
    <ellipse cx="40" cy="150" rx="3" ry="5" class="condensation" transform="rotate(15 40 150)"/>
    <circle cx="170" cy="120" r="5" class="condensation"/>
    <ellipse cx="160" cy="200" rx="4" ry="6" class="condensation" transform="rotate(-10 160 200)"/>
    <circle cx="50" cy="250" r="3" class="condensation"/>
  </g>
  

</svg> 