<?xml version="1.0" encoding="UTF-8" standalone="no"?>
<svg xmlns="http://www.w3.org/2000/svg" width="400" height="300" viewBox="0 0 400 300">
  <!-- Background -->
  <rect width="400" height="300" fill="white"/>

  <!-- Define styles and gradients -->
  <defs>
    <style>
      .bowl-outer { fill: #F5F5DC; /* Beige - like ceramic */ stroke: #DCDCDC; /* Gainsboro */ stroke-width: 2; }
      .bowl-inner { fill: #FFFFF0; /* Ivory */ }
      .bowl-rim { fill: none; stroke: #DCDCDC; stroke-width: 4; }
      .lettuce-base { fill: #90EE90; /* Light Green */ }
      .lettuce-darker { fill: #6B8E23; /* Olive Drab */ opacity: 0.7;}
      .tomato { fill: #FF6347; /* Tomato Red */ stroke: #DC143C; /* Crimson */ stroke-width: 0.5; }
      .cucumber-skin { fill: #2E8B57; /* Sea Green */ }
      .cucumber-flesh { fill: #98FB98; /* Pale Green */ }
    </style>
    <radialGradient id="bowlShadingSalad" cx="0.5" cy="0.9" r="0.8" fx="0.5" fy="0.9">
      <stop offset="0%" style="stop-color:#DCDCDC; stop-opacity:0.5" />
      <stop offset="100%" style="stop-color:#F5F5DC; stop-opacity:0" />
    </radialGradient>
  </defs>

  <!-- Bowl -->
  <g transform="translate(50, 80)">
    <!-- Outer bowl shape -->
    <path class="bowl-outer" d="M0,150 C0,50 300,50 300,150 A 150 50 0 0 1 0,150 Z"/>
    <!-- Inner shading -->
     <path d="M0,150 C0,50 300,50 300,150 A 150 50 0 0 1 0,150 Z" style="fill: url(#bowlShadingSalad);"/>
     <!-- Inner bowl visible area (top ellipse) -->
    <ellipse class="bowl-inner" cx="150" cy="55" rx="145" ry="45"/>
    <!-- Salad Base (Lettuce Layer) -->
     <ellipse class="lettuce-base" cx="150" cy="70" rx="135" ry="40"/> 
    <!-- Bowl Rim -->
    <ellipse class="bowl-rim" cx="150" cy="55" rx="145" ry="45"/>

    <!-- Salad Ingredients -->
    <g transform="translate(150, 70)"> <!-- Center transform on salad surface -->

      <!-- Lettuce pieces (irregular shapes) -->
      <path class="lettuce-darker" d="M-80,0 Q -70,-20 -50,-5 Q -75,15 -80,0 Z"/>
      <path class="lettuce-darker" d="M30,-10 Q 45,-25 60,-5 Q 40,10 30,-10 Z"/>
      <path class="lettuce-darker" d="M90,15 Q 110,5 120,25 Q 100,30 90,15 Z" transform="rotate(10)"/>
      <path class="lettuce-darker" d="M-30,25 Q -10,15 5,30 Q -15,35 -30,25 Z"/>
      <path class="lettuce-darker" d="M-110,-5 Q -90,-15 -80,5 Q -100,10 -110,-5 Z" transform="rotate(-20)"/>
      <path class="lettuce-darker" d="M10,20 Q 30,10 45,25 Q 25,35 10,20 Z"/>

      <!-- Tomato slices (circles/wedges) -->
      <circle cx="-60" cy="10" r="12" class="tomato"/>
      <path class="tomato" d="M 70 -5 A 10 10 0 0 1 80 5 L 75 0 Z"/> <!-- Wedge -->
      <circle cx="10" cy="-15" r="10" class="tomato"/>
      <circle cx="100" cy="0" r="11" class="tomato"/>
      
      <!-- Cucumber slices (circles with inner flesh) -->
      <circle cx="-95" cy="-10" r="10" class="cucumber-skin"/>
      <circle cx="-95" cy="-10" r="7" class="cucumber-flesh"/>

      <circle cx="40" cy="20" r="11" class="cucumber-skin"/>
      <circle cx="40" cy="20" r="8" class="cucumber-flesh"/>

      <circle cx="-10" cy="25" r="9" class="cucumber-skin"/>
      <circle cx="-10" cy="25" r="6" class="cucumber-flesh"/>

    </g>
  </g>

</svg> 