<?xml version="1.0" encoding="UTF-8" standalone="no"?>
<svg xmlns="http://www.w3.org/2000/svg" width="450" height="350" viewBox="0 0 450 350">
  <!-- Background -->
  <rect width="450" height="350" fill="white"/>

  <!-- Define styles -->
  <defs>
    <style>
      .lettuce-leaf { fill: #90EE90; /* Light Green */ stroke: #6B8E23; /* Olive Drab */ stroke-width: 1; opacity: 0.9; }
      .tomato-slice { fill: #FF6347; /* Tomato Red */ stroke: #DC143C; /* Crimson */ stroke-width: 1; }
      .cucumber-skin { fill: #2E8B57; /* Sea Green */ }
      .cucumber-flesh { fill: #98FB98; /* Pale Green */ }
      .onion-ring { fill: none; stroke: #BA55D3; /* Medium Orchid */ stroke-width: 2.5; }
      .onion-inner { fill: none; stroke: #E6E6FA; /* Lavender */ stroke-width: 1.5; opacity: 0.8; }
    </style>
     <!-- Simple Drop Shadow Filter -->
    <filter id="dropShadow" x="-20%" y="-20%" width="140%" height="140%">
      <feGaussianBlur in="SourceAlpha" stdDeviation="1.5" result="blur"/>
      <feOffset in="blur" dx="2" dy="2" result="offsetBlur"/>
      <feMerge>
        <feMergeNode in="offsetBlur"/>
        <feMergeNode in="SourceGraphic"/>
      </feMerge>
    </filter>
  </defs>

  <!-- Salad Ingredients (Scattered) -->
  <g filter="url(#dropShadow)">
    <!-- Lettuce Leaves -->
    <path class="lettuce-leaf" d="M50,150 C 30,100 80,50 150,80 C 220,110 200,200 130,220 S 70,200 50,150 Z" transform="rotate(-15, 125, 135)"/>
    <path class="lettuce-leaf" d="M250,100 C 230,50 280,20 350,50 C 420,80 400,180 330,200 S 270,150 250,100 Z" transform="rotate(20, 325, 125)"/>
    <path class="lettuce-leaf" d="M180,200 C 150,160 200,130 280,160 C 350,190 330,280 250,300 S 210,240 180,200 Z" transform="rotate(5, 255, 230)"/>
    <path class="lettuce-leaf" d="M80,250 C 50,220 100,190 170,230 C 240,270 180,330 110,320 S 110,280 80,250 Z" transform="rotate(-30, 125, 275)"/>

    <!-- Tomato Slices -->
    <circle cx="100" cy="100" r="30" class="tomato-slice"/>
    <circle cx="300" cy="250" r="25" class="tomato-slice"/>
    <circle cx="360" cy="150" r="28" class="tomato-slice"/>

    <!-- Cucumber Slices -->
    <g transform="translate(200, 150) rotate(10)">
      <circle cx="0" cy="0" r="22" class="cucumber-skin"/>
      <circle cx="0" cy="0" r="17" class="cucumber-flesh"/>
    </g>
    <g transform="translate(80, 200) rotate(-25)">
      <circle cx="0" cy="0" r="25" class="cucumber-skin"/>
      <circle cx="0" cy="0" r="20" class="cucumber-flesh"/>
    </g>
    <g transform="translate(380, 220) rotate(30)">
      <circle cx="0" cy="0" r="18" class="cucumber-skin"/>
      <circle cx="0" cy="0" r="14" class="cucumber-flesh"/>
    </g>

    <!-- Red Onion Rings -->
    <g transform="translate(150, 50)">
       <circle cx="0" cy="0" r="18" class="onion-ring"/>
       <circle cx="0" cy="0" r="14" class="onion-inner"/>
       <circle cx="0" cy="0" r="10" class="onion-ring"/>
    </g>
     <g transform="translate(270, 200) rotate(-10)">
       <ellipse cx="0" cy="0" rx="20" ry="15" class="onion-ring"/>
       <ellipse cx="0" cy="0" rx="16" ry="12" class="onion-inner"/>
       <ellipse cx="0" cy="0" rx="12" ry="9" class="onion-ring"/>
    </g>
  </g>

</svg> 